<svg version="1" xmlns="http://www.w3.org/2000/svg" width="400" height="400" viewBox="0 0 300.000000 300.000000"><path d="M145.7 8.6c-.1.1-3.4.4-7.4.8C121 10.8 99.6 17 85.1 24.7 67.9 33.9 49.6 48.9 39.7 62c-2.3 3-4.5 5.7-4.8 6-1.4 1.2-10.5 17.2-13.4 23.5-3.6 7.9-8.1 21.2-9 26.4-.3 1.9-.7 3.7-.9 4-2 3.1-2.9 38.2-1.3 49 4.1 29 19.9 59.6 41.4 80.4 7.6 7.4 20.2 17.1 26.1 20.3 2.1 1 3.9 2.1 4.2 2.4 1.5 1.6 15.4 7.5 24.4 10.4 35.8 11.7 75 8.5 108.4-8.9 7.2-3.8 7.9-4.2 16-9.6 18.6-12.6 35.3-31.9 45.6-52.9 4.7-9.7 9-20.6 10-25.5.3-1.1 1.1-4.9 1.9-8.5 3.6-15.3 3.9-39.7.7-54.5-.6-2.8-1.2-6-1.4-7.2-1.6-9.4-11.7-33.1-18.7-43.8-19-28.9-45.7-48.8-79.3-59.2-4.8-1.4-5.9-1.7-12.1-2.9-8.2-1.6-30.9-3.6-31.8-2.8zm46.6 9.5c11.9 4 33.7 14.4 33.7 16.1 0 .4.5.8 1 .8.6 0 1.6.5 2.3 1 .7.6 3.9 3.1 7.1 5.8 11.1 8.8 27.7 27.1 30.7 33.7.5 1.1 2 3.8 3.4 6s3 5.1 3.6 6.5c.5 1.4 2.1 4.7 3.3 7.5 2.9 6.1 7.2 19.6 8 24.9.4 2.1.8 4.1 1 4.5 2.4 3.9 2.5 37.9.2 50.1-3.6 19-12.4 40-23.5 55.4-6.3 8.9-18.9 22.2-26.9 28.4-17.6 13.7-42.7 24.9-61.7 27.6-16.9 2.4-35 2.5-41.5.3-15.2-5.2-23.7-10.1-31.7-18.3-9.6-9.9-17.4-25.3-19-37.4-.8-6.1-.7-18.5.2-23.9.9-5.7 5.4-16.7 9.7-23.8 3.6-5.9 15-17.9 18-18.9 1-.3 1.8-1 1.8-1.5s.5-.9 1-.9c.6 0 2.7-1 4.8-2.3 3.7-2.3 13.9-6 19.7-7.1 1.7-.3 6.8-.8 11.5-1.1 4.7-.3 9.5-.7 10.6-.9 1.2-.2 3.7-.7 5.7-1 11.2-1.8 25-9.2 34.7-18.7 28.6-27.9 28.2-74.8-.7-102.2-5.8-5.6-9.5-8.2-16.8-12.1-7-3.6-4.4-3.3 9.8 1.5zm-35.8 50.3c4 1.9 7.2 8 6.9 12.8-1.1 14.8-23.3 16.7-26 2.2-1.5-7.8 1.6-13.4 9-16 3.5-1.3 5.6-1.1 10.1 1z"/><path d="M144 205.7c-13.5 5.8-12.5 25.4 1.6 29.3 5.4 1.5 9.7.8 13.9-2.5 6.5-4.9 8.2-13 4.2-19.9-3.9-7-12.6-10-19.7-6.9z"/></svg>